#!OML:ASF H:\LiuWeirdWalks\Patient Classification 1\Patient 1\Session 1\male.ASF
:FULLY-SPECIFIED
:DEGREES
332
root 2.98482 17.8428 33.9888 -1.16441 13.3714 -0.928296
lowerback 2.26577 1.76803 -1.2413
upperback 2.63731 2.3583 -0.941219
thorax 1.42361 1.17013 -0.292618
lowerneck -21.1029 -1.99506 0.368521
upperneck 7.5952 -2.31792 -3.26533
head 5.63093 -1.37975 -1.35243
rclavicle -9.69075e-015 7.95139e-015
rhumerus -19.9226 -13.2801 -72.7688
rradius 43.4002
rwrist -12.8572
rhand -21.1481 -2.51865
rfingers 7.12502
rthumb 5.23132 -32.4341
lclavicle -9.69075e-015 7.95139e-015
lhumerus -36.4378 12.6701 76.8121
lradius 25.7008
lwrist -2.52913
lhand -9.73465 -4.05587
lfingers 7.12502
lthumb 16.2392 25.284
rfemur -9.94873 -9.11432 19.7463
rtibia 41.557
rfoot -16.3229 -23.166
rtoes -3.78551
lfemur -16.98 -4.27094 -20.5808
ltibia 34.0552
lfoot -7.14017 10.7634
ltoes -6.2639
333
root 3.00877 17.8516 34.0232 -1.19032 13.3137 -1.04708
lowerback 2.2183 1.99334 -0.793075
upperback 2.5772 2.66449 -1.02228
thorax 1.41148 1.33164 -0.628096
lowerneck -21.3025 -2.38945 -0.067447
upperneck 7.99258 -2.77127 -2.83545
head 5.79132 -1.58195 -1.20115
rclavicle 2.30093e-014 2.78299e-015
rhumerus -20.1732 -14.1537 -72.6324
rradius 42.5659
rwrist -12.8528
rhand -20.4421 -2.45589
rfingers 7.12502
rthumb 5.91303 -32.3534
lclavicle 2.30093e-014 2.78299e-015
lhumerus -35.5215 11.1572 77.6703
lradius 27.0682
lwrist -0.433363
lhand -11.0088 -4.13979
lfingers 7.12502
lthumb 15.012 25.296
rfemur -9.83933 -9.21699 19.7238
rtibia 41.5508
rfoot -16.1586 -22.8554
rtoes -3.87405
lfemur -16.703 -4.35077 -20.514
ltibia 33.842
lfoot -7.26456 10.908
ltoes -6.09073
334
root 3.0304 17.8585 34.0568 -1.24287 13.2367 -1.2021
lowerback 2.18708 2.19189 -0.379845
upperback 2.51193 2.93387 -1.07556
thorax 1.38703 1.47363 -0.915568
lowerneck -21.4483 -2.73482 -0.43809
upperneck 8.36367 -3.17752 -2.42319
head 5.93878 -1.75924 -1.06088
rclavicle -4.7112e-014 6.36111e-015
rhumerus -20.4256 -14.9382 -72.525
rradius 41.7624
rwrist -12.7096
rhand -19.5478 -2.31924
rfingers 7.12502
rthumb 6.7764 -32.1908
lclavicle -4.7112e-014 6.36111e-015
lhumerus -34.7078 9.65165 78.4448
lradius 28.4995
lwrist 1.69272
lhand -12.2419 -4.23055
lfingers 7.12502
lthumb 13.8239 25.2901
rfemur -9.74001 -9.31864 19.7471
rtibia 41.5937
rfoot -16.0074 -22.5472
rtoes -3.94872
lfemur -16.4203 -4.33485 -20.3859
ltibia 33.6382
lfoot -7.42717 10.9304
ltoes -5.96824
335
root 3.05045 17.8641 34.0894 -1.30479 13.1219 -1.38507
lowerback 2.17919 2.40371 0.0558359
upperback 2.4421 3.22093 -1.12428
thorax 1.35076 1.62446 -1.21182
lowerneck -21.6058 -3.08711 -0.823374
upperneck 8.73785 -3.594 -1.98429
head 6.09356 -1.93875 -0.912159
rclavicle -6.31141e-015 -2.78299e-015
rhumerus -20.6979 -15.7421 -72.4038
rradius 40.993
rwrist -12.3816
rhand -18.4607 -2.13858
rfingers 7.12502
rthumb 7.8257 -31.9737
lclavicle -6.31141e-015 -2.78299e-015
lhumerus -33.9479 8.06135 79.1758
lradius 30.0143
lwrist 3.85461
lhand -13.386 -4.20658
lfingers 7.12502
lthumb 12.7211 25.3859
rfemur -9.67427 -9.39661 19.8107
rtibia 41.6963
rfoot -15.884 -22.2389
rtoes -4.02674
lfemur -16.1435 -4.21979 -20.2061
ltibia 33.4367
lfoot -7.61586 10.8546
ltoes -5.88481
336
root 3.06939 17.8684 34.1206 -1.29974 13.0056 -1.39333
lowerback 2.13938 2.55037 0.201403
upperback 2.35718 3.41787 -1.17559
thorax 1.30204 1.72521 -1.34723
lowerneck -21.689 -3.33288 -1.07364
upperneck 9.04399 -3.89554 -1.64957
head 6.21461 -2.06565 -0.804151
rclavicle -5.73991e-014 1.11319e-014
rhumerus -20.9206 -16.3231 -72.3457
rradius 40.2354
rwrist -11.9663
rhand -17.2637 -1.87832
rfingers 7.12502
rthumb 8.9809 -31.6672
lclavicle -5.73991e-014 1.11319e-014
lhumerus -33.3266 6.62998 79.7873
lradius 31.6344
lwrist 5.98292
lhand -14.4325 -4.03586
lfingers 7.12502
lthumb 11.7121 25.6167
rfemur -9.66579 -9.51173 19.6792
rtibia 41.8341
rfoot -15.7616 -21.8829
rtoes -4.08658
lfemur -15.9167 -4.05296 -20.2063
ltibia 33.2691
lfoot -7.83425 10.7225
ltoes -5.81416
337
root 3.08815 17.8711 34.1498 -1.30384 12.8521 -1.41511
lowerback 2.12261 2.43704 -0.0917418
upperback 2.28036 3.26078 -1.03035
thorax 1.20334 1.64018 -1.03584
lowerneck -21.9378 -3.18099 -0.858961
upperneck 9.3573 -3.73903 -1.70761
head 6.35111 -1.98875 -0.847838
rclavicle 7.56376e-014 -8.74653e-015
rhumerus -20.7638 -16.1041 -72.5643
rradius 39.3986
rwrist -11.3608
rhand -15.9571 -1.58271
rfingers 7.12502
rthumb 10.2415 -31.3134
lclavicle 7.56376e-014 -8.74653e-015
lhumerus -32.9545 6.08428 80.1141
lradius 33.38
lwrist 7.96072
lhand -15.381 -3.78043
lfingers 7.12502
lthumb 10.7973 25.922
rfemur -9.67936 -9.61247 19.5594
rtibia 42.0082
rfoot -15.6497 -21.5042
rtoes -4.12362
lfemur -15.6999 -3.83076 -20.1843
ltibia 33.1297
lfoot -8.07662 10.5653
ltoes -5.73576
338
root 3.10479 17.8717 34.1778 -1.43765 12.6724 -1.70879
lowerback 2.16963 2.25498 -0.229783
upperback 2.19444 3.0124 -0.762188
thorax 1.06253 1.51119 -0.687041
lowerneck -22.0231 -2.921 -0.517325
upperneck 9.57734 -3.46417 -1.8679
head 6.42933 -1.8586 -0.926766
rclavicle -1.9133e-014 -2.78299e-015
rhumerus -20.6003 -15.6642 -72.8387
rradius 38.5756
rwrist -10.6057
rhand -14.6023 -1.24231
rfingers 7.12502
rthumb 11.5483 -30.9042
lclavicle -1.9133e-014 -2.78299e-015
lhumerus -32.7299 5.75918 80.3062
lradius 35.1845
lwrist 9.80089
lhand -16.2242 -3.4446
lfingers 7.12502
lthumb 9.98382 26.2986
rfemur -9.62361 -9.67799 19.7339
rtibia 42.1983
rfoot -15.578 -21.1483
rtoes -4.07535
lfemur -15.4288 -3.55817 -19.8613
ltibia 33.0296
lfoot -8.35365 10.3792
ltoes -5.6548
